<?xml version="1.0" encoding="iso-8859-1"?>
<!-- Generator: Adobe Illustrator 19.0.0, SVG Export Plug-In . SVG Version: 6.00 Build 0)  -->
<svg version="1.1" id="Layer_1" xmlns="http://www.w3.org/2000/svg" xmlns:xlink="http://www.w3.org/1999/xlink" x="0px" y="0px"
	 viewBox="0 0 512 512" style="enable-background:new 0 0 512 512;" xml:space="preserve">
<g>
	<g>
		<path d="M277.289,278.893c-3.234-3.231-8.472-3.231-11.703,0c-13.439,13.44-35.308,13.441-48.75,0c-3.23-3.231-8.47-3.23-11.701,0
			c-3.231,3.231-3.231,8.471,0.001,11.702c9.947,9.946,23.011,14.919,36.076,14.919c13.066,0,26.131-4.973,36.077-14.919
			C280.52,287.363,280.52,282.124,277.289,278.893z"/>
	</g>
</g>
<g>
	<g>
		<path d="M192.098,210.56c-4.571,0-8.274,3.705-8.274,8.274v13.234c0,4.57,3.704,8.274,8.274,8.274
			c4.571,0,8.274-3.705,8.274-8.274v-13.234C200.372,214.265,196.669,210.56,192.098,210.56z"/>
	</g>
</g>
<g>
	<g>
		<path d="M315.092,180.989c-6.616-6.615-15.412-10.259-24.769-10.259s-18.153,3.643-24.769,10.259
			c-3.231,3.231-3.231,8.471,0.001,11.702c3.23,3.231,8.47,3.23,11.701,0c3.49-3.491,8.13-5.412,13.067-5.412
			c4.936,0,9.576,1.922,13.066,5.412c1.616,1.616,3.733,2.424,5.852,2.424c2.117,0,4.235-0.808,5.85-2.424
			C318.324,189.46,318.324,184.22,315.092,180.989z"/>
	</g>
</g>
<g>
	<g>
		<path d="M216.867,180.989c-6.615-6.616-15.412-10.259-24.768-10.259c-9.357,0-18.153,3.643-24.769,10.259
			c-3.231,3.231-3.231,8.471,0.001,11.702c3.23,3.231,8.47,3.23,11.701,0c3.49-3.491,8.13-5.412,13.067-5.412
			c4.935,0,9.576,1.923,13.067,5.412c1.615,1.615,3.733,2.424,5.85,2.424c2.117,0,4.235-0.808,5.852-2.424
			C220.099,189.46,220.099,184.22,216.867,180.989z"/>
	</g>
</g>
<g>
	<g>
		<path d="M290.324,210.56c-4.571,0-8.274,3.705-8.274,8.274v13.234c0,4.57,3.704,8.274,8.274,8.274s8.274-3.705,8.274-8.274
			v-13.234C298.598,214.265,294.894,210.56,290.324,210.56z"/>
	</g>
</g>
<g>
	<g>
		<path d="M361.467,490.551H129.235v-95.86c0-18.63,9.524-35.535,25.477-45.221c3.905-2.372,5.15-7.461,2.779-11.367
			c-2.371-3.907-7.46-5.15-11.368-2.779c-20.937,12.712-33.437,34.904-33.437,59.366v104.135c0,4.57,3.704,8.274,8.274,8.274
			h240.506c4.571,0,8.274-3.705,8.274-8.274C369.741,494.256,366.037,490.551,361.467,490.551z"/>
	</g>
</g>
<g>
	<g>
		<path d="M363.245,365.346c-5.833-12.477-15.152-22.858-26.951-30.021c-3.906-2.371-8.995-1.128-11.368,2.779
			c-2.371,3.907-1.126,8.996,2.779,11.367c8.998,5.463,16.104,13.376,20.549,22.884c1.404,3.006,4.388,4.772,7.501,4.772
			c1.173,0,2.366-0.25,3.499-0.781C363.393,374.41,365.181,369.485,363.245,365.346z"/>
	</g>
</g>
<g>
	<g>
		<path d="M289.898,360.601c-4.571,0-8.274,3.705-8.274,8.274c0,22.282-18.128,40.408-40.409,40.408
			c-22.281,0-40.408-18.127-40.408-40.408c0-4.57-3.704-8.274-8.274-8.274c-4.571,0-8.274,3.705-8.274,8.274
			c0,31.407,25.551,56.957,56.957,56.957c31.407,0,56.958-25.551,56.958-56.957C298.172,364.305,294.469,360.601,289.898,360.601z"
			/>
	</g>
</g>
<g>
	<g>
		<path d="M253.898,198.425c-4.571,0-8.274,3.705-8.274,8.274v39.165c0,2.434-1.979,4.413-4.413,4.413
			c-2.434,0-4.413-1.979-4.413-4.413v-39.165c0-4.57-3.704-8.274-8.274-8.274c-4.571,0-8.274,3.705-8.274,8.274v39.165
			c0,11.559,9.403,20.962,20.962,20.962c11.559,0,20.961-9.403,20.961-20.962v-39.165
			C262.172,202.129,258.469,198.425,253.898,198.425z"/>
	</g>
</g>
<g>
	<g>
		<path d="M462.906,385.83c-4.571,0-8.274,3.705-8.274,8.274c0,4.57,3.704,8.274,8.274,8.274c17.946,0,32.546,14.6,32.546,32.546
			c0,17.945-14.599,32.546-32.546,32.546c-12.441,0-23.966-7.253-29.356-18.477c-1.378-2.867-4.277-4.691-7.459-4.691h-33.885
			c-3.182,0-6.081,1.824-7.459,4.692c-5.39,11.223-16.914,18.476-29.356,18.476c-17.946,0-32.546-14.6-32.546-32.546
			c0-17.945,14.599-32.546,32.546-32.546h77.594c4.571,0,8.274-3.705,8.274-8.274c0-4.57-3.704-8.274-8.274-8.274h-77.594
			c-27.07,0-49.094,22.024-49.094,49.094c0,27.07,22.024,49.094,49.094,49.094c16.97,0,32.805-8.943,41.691-23.168h24.132
			c8.888,14.227,24.721,23.168,41.691,23.168c27.07,0,49.094-22.024,49.094-49.094C512,407.854,489.976,385.83,462.906,385.83z"/>
	</g>
</g>
<g>
	<g>
		<path d="M368.629,426.649h-6.068v-6.068c0-4.57-3.704-8.274-8.274-8.274c-4.571,0-8.274,3.705-8.274,8.274v6.068h-6.068
			c-4.571,0-8.274,3.705-8.274,8.274c0,4.57,3.704,8.274,8.274,8.274h6.068v6.068c0,4.57,3.704,8.274,8.274,8.274
			c4.571,0,8.274-3.705,8.274-8.274v-6.068h6.068c4.571,0,8.274-3.705,8.274-8.274C376.904,430.354,373.2,426.649,368.629,426.649z"
			/>
	</g>
</g>
<g>
	<g>
		<path d="M381.583,125.898c-2.421-37.111-18.83-86.708-83.264-112.238C274.127,4.075,248.3,2.29,225.59,8.631
			c-19.769,5.522-35.194,16.571-43.056,30.667c-12.304,2.686-47.008,12.846-64.767,44.475
			c-15.076,26.851-13.831,61.656,3.67,103.463l-5.019,51.917c-3.114,32.221,11.219,64.054,37.406,83.073l45.288,32.91
			c12.589,9.147,27.338,13.721,42.094,13.72c14.751-0.001,29.511-4.574,42.103-13.72l45.287-32.91
			c26.181-19.023,40.511-50.855,37.395-83.073l-3.301-34.174c0.322,0.039,0.649,0.063,0.977,0.063c0.261,0,0.526-0.012,0.79-0.038
			c3.146-0.301,5.845-2.366,6.957-5.324C371.938,198.294,384.151,165.287,381.583,125.898z M132.134,91.987
			c9.718-17.395,26.477-26.954,39.34-31.998c-5.213,12.944-9.536,31.954-4.762,54.699c-0.317,9.69-7.612,24.127-20.66,40.802
			c-4.666,5.963-9.369,11.326-13.216,15.504C121.119,138.683,120.873,112.145,132.134,91.987z M318.87,308.839l-45.286,32.909
			c-19.366,14.066-45.385,14.066-64.742,0.001l-45.29-32.911c-21.466-15.59-33.214-41.682-30.662-68.092l4.928-50.988
			c8.167-8.124,32.873-34.027,42.021-58.704c11.689,10.256,32.061,23.242,60.269,23.242c8.804,0,17.208-2.833,25.334-5.572
			c12.309-4.149,23.937-8.068,37.537-3.273c12.976,4.574,26.438,16.55,40.853,36.397l5.689,58.901
			C352.074,267.154,340.33,293.246,318.87,308.839z M360.683,177.024c-17.793-25.611-34.962-41.106-52.201-47.183
			c-6.387-2.252-12.464-3.124-18.218-3.124c-11.349,0-21.434,3.399-30.109,6.324c-7.178,2.419-13.956,4.705-20.047,4.705
			c-32.841,0-52.726-21.618-57.368-27.278c-6.79-34.06,10.956-57.518,11.855-58.676l0.001-0.002
			c0.002-0.003,0.009-0.011,0.011-0.013c0.003-0.004,0.006-0.009,0.009-0.013c0.424-0.541,0.784-1.136,1.067-1.782
			c4.943-11.283,17.786-20.782,34.358-25.411c19.247-5.376,41.331-3.786,62.181,4.475c45.102,17.87,69.599,50.651,72.812,97.43
			C366.39,146.198,363.541,164.491,360.683,177.024z"/>
	</g>
</g>
<g>
	<g>
		<path d="M99.001,259.007c-3.231-3.23-8.47-3.231-11.702,0c-3.231,3.231-3.231,8.47,0,11.701c20.174,20.174,20.174,53,0.001,73.173
			c-18.182,18.182-46.645,19.977-66.856,5.384l36.119-36.119c3.231-3.231,3.231-8.47,0-11.701l-36.12-36.12
			c14.292-10.332,33.027-12.761,49.744-5.982c4.234,1.719,9.061-0.323,10.778-4.559c1.718-4.234-0.323-9.06-4.559-10.778
			c-25.494-10.337-54.532-4.448-73.982,15.001c-3.231,3.231-3.231,8.47,0,11.701l36.587,36.587L2.424,343.882
			c-3.231,3.231-3.231,8.47,0,11.701c13.315,13.315,30.799,19.971,48.289,19.97c17.486-0.001,34.977-6.658,48.29-19.97
			C125.626,328.958,125.626,285.633,99.001,259.007z"/>
	</g>
</g>
<g>
	<g>
		<path d="M441.996,187.247h-0.001c-33.458,0-60.678,27.22-60.678,60.678v47.991h0v23.168c0,4.57,3.704,8.274,8.274,8.274
			c4.571,0,8.274-3.705,8.274-8.274V304.19h18.388v14.894c0,4.57,3.704,8.274,8.274,8.274c4.571,0,8.274-3.705,8.274-8.274V304.19
			h18.388v14.894c0,4.57,3.704,8.274,8.274,8.274s8.274-3.705,8.274-8.274V304.19h18.387v14.894c0,4.57,3.704,8.274,8.274,8.274
			c4.571,0,8.274-3.705,8.274-8.274v-23.168v-47.991C502.673,214.467,475.453,187.247,441.996,187.247z M486.124,287.641h-88.259
			v-39.717c0-24.333,19.797-44.13,44.131-44.13c24.333,0,44.128,19.797,44.128,44.13V287.641z"/>
	</g>
</g>
<g>
	<g>
		<circle cx="418.282" cy="256.195" r="8.274"/>
	</g>
</g>
<g>
	<g>
		<circle cx="465.721" cy="256.195" r="8.274"/>
	</g>
</g>
<g>
	<g>
		<circle cx="462.963" cy="419.474" r="8.274"/>
	</g>
</g>
<g>
	<g>
		<circle cx="448.621" cy="433.827" r="8.274"/>
	</g>
</g>
<g>
	<g>
		<circle cx="462.963" cy="448.158" r="8.274"/>
	</g>
</g>
<g>
	<g>
		<circle cx="477.305" cy="433.816" r="8.274"/>
	</g>
</g>
<g>
	<g>
		<circle cx="10.08" cy="307.297" r="8.274"/>
	</g>
</g>
<g>
</g>
<g>
</g>
<g>
</g>
<g>
</g>
<g>
</g>
<g>
</g>
<g>
</g>
<g>
</g>
<g>
</g>
<g>
</g>
<g>
</g>
<g>
</g>
<g>
</g>
<g>
</g>
<g>
</g>
</svg>
