<svg xmlns="http://www.w3.org/2000/svg" viewBox="0 0 2750.56 469.28"><defs><style>.cls-1,.cls-2{fill:none;stroke-width:40px;}.cls-1,.cls-2,.cls-3{stroke:#fff;}.cls-1,.cls-3{stroke-miterlimit:10;}.cls-2{stroke-linecap:round;stroke-linejoin:round;}.cls-3{fill:#fff;}</style></defs><g id="Layer_2" data-name="Layer 2"><g id="Layer_1-2" data-name="Layer 1"><circle class="cls-1" cx="234.64" cy="234.64" r="161.05"/><line class="cls-2" x1="234.64" y1="449.28" x2="234.64" y2="342.11"/><line class="cls-2" x1="342.11" y1="234.64" x2="449.28" y2="234.64"/><line class="cls-2" x1="234.64" y1="20" x2="234.64" y2="127.18"/><line class="cls-2" x1="127.18" y1="234.64" x2="20" y2="234.64"/><circle class="cls-3" cx="234.64" cy="234.64" r="20"/><path class="cls-3" d="M607.29,262.84h-41V142.7a51.75,51.75,0,0,1,7.84-2,56.78,56.78,0,0,1,10.85-1q11.67,0,17,4.17t5.34,14.85Zm-41-9h41v39.38q0,11,6.5,15.68t18.52,4.68a54.78,54.78,0,0,0,11.52-1.34,50.68,50.68,0,0,0,10.51-3.34,36.17,36.17,0,0,1,4.34,6.35,18.66,18.66,0,0,1,2,9q0,9.67-9.18,16T623,346.6q-26.37,0-41.55-11.84t-15.18-38.55Zm25-34V187.42h65.41a42.54,42.54,0,0,1,2.83,6.67,27.43,27.43,0,0,1,1.5,9q0,8.35-4,12.52a13.71,13.71,0,0,1-10.35,4.17Z"/><path class="cls-3" d="M735.76,274.86h-41V125c1.77-.44,4.33-1,7.67-1.66a56.06,56.06,0,0,1,11-1q11.69,0,17,4.18t5.34,14.85Zm-41-21h41v87.44a44.54,44.54,0,0,1-7.67,1.83,67.94,67.94,0,0,1-11,.83q-11.36,0-16.86-4.17t-5.5-14.85Zm145.83,20.69h-41v-30q0-17-9.17-24.7t-23.2-7.67a49.67,49.67,0,0,0-20.85,4.33,76.68,76.68,0,0,0-16.52,10l-2.34-33.38a118.46,118.46,0,0,1,19.69-9.17,76.39,76.39,0,0,1,27-4.51q30,0,48.22,15.69t18.19,47.38Zm-41-20.36h41v87.11a44.38,44.38,0,0,1-7.84,1.83,68.9,68.9,0,0,1-10.85.83q-11.68,0-17-4.17t-5.34-14.85Z"/><path class="cls-3" d="M943.67,179.41q32.7,0,52.06,13.85t19.35,43.55v76.76q0,8-3.84,12.68a38.47,38.47,0,0,1-9.84,8.34q-9.35,5.34-23.69,8.84a136.64,136.64,0,0,1-32.38,3.51q-33.37,0-52.39-12.85t-19-38.21q0-22.35,14.18-34.21t41.22-14.51l45.38-4.68v-6q0-13.35-9.18-19.36t-25.86-6a96.93,96.93,0,0,0-25.36,3.34,127.33,127.33,0,0,0-22,8,25.18,25.18,0,0,1-6-7.34,19.14,19.14,0,0,1-2.67-9.68q0-12,13.34-17.69a83.71,83.71,0,0,1,21.86-6.34A157.81,157.81,0,0,1,943.67,179.41Zm1.66,136.16a74.74,74.74,0,0,0,18-2q8-2,11.68-4.34V271.18l-33,3.34q-13.69,1-20.86,5.84T914,294.54a18.1,18.1,0,0,0,7.68,15.36Q929.32,315.57,945.33,315.57Z"/><path class="cls-3" d="M1098.51,262.84h-41V142.7a51.62,51.62,0,0,1,7.85-2,56.67,56.67,0,0,1,10.84-1q11.68,0,17,4.17t5.34,14.85Zm-41-9h41v39.38q0,11,6.51,15.68t18.52,4.68a54.69,54.69,0,0,0,11.51-1.34,50.49,50.49,0,0,0,10.51-3.34,35.12,35.12,0,0,1,4.34,6.35,18.55,18.55,0,0,1,2,9q0,9.67-9.18,16t-28.54,6.34q-26.36,0-41.54-11.84t-15.19-38.55Zm25-34V187.42h65.41a41.49,41.49,0,0,1,2.84,6.67,27.43,27.43,0,0,1,1.5,9q0,8.35-4,12.52a13.7,13.7,0,0,1-10.34,4.17Z"/><path class="cls-3" d="M1380.83,240.48q0,34.71-13.18,58.4t-36,35.88q-22.86,12.18-51.89,12.18-28.71,0-51.56-12.18t-36.05-35.88q-13.18-23.69-13.18-58.4t13.52-58.4q13.52-23.69,36.37-35.87t50.9-12.19q28.69,0,51.56,12.19t36.2,35.87Q1380.83,205.78,1380.83,240.48Zm-43,0q0-35-15.85-53.39t-42.21-18.36q-25.71,0-41.55,18.36t-15.85,53.39q0,35.39,15.68,53.73t42,18.36q26.35,0,42-18.36T1337.78,240.48Z"/><path class="cls-3" d="M1500,253.16l6.34-23.69q25.7,0,42.88,7t25.87,19.19q8.67,12.18,8.67,28.53,0,31.71-23.36,46.89t-66.07,15.18q-8.35,0-18.19-.5a168.62,168.62,0,0,1-19.69-2.17,176,176,0,0,1-18.19-4q-16.35-5.67-16.35-19.69V156.05q0-6,3.5-9.51a21.1,21.1,0,0,1,9.18-5.17,127.5,127.5,0,0,1,26.36-5.18q15-1.5,31-1.5,40.05,0,62.07,14t22,42.71a44,44,0,0,1-8.51,26.87q-8.52,11.51-25.37,17.85T1500,242.48l-2.67-20.35q18.35,0,27.36-7.34t9-20.7q0-13-10.34-19.85t-31-6.84q-8.34,0-16,.66t-13,1.67v140.5a86.9,86.9,0,0,0,15.35,2.34q9,.66,17.69.66,20.68,0,32.54-7.51t11.84-23.19q0-14.34-10.34-21.86T1500,253.16Zm29.7-31v31h-80.76v-31Z"/><path class="cls-3" d="M1664.83,245.49h42v42.05q0,19.69-7.67,32.87A47.26,47.26,0,0,1,1678,339.93q-13.52,6.33-31.54,6.34t-28.7-5.51q-10.68-5.5-10.68-17.18a22.66,22.66,0,0,1,2-9.85,30.16,30.16,0,0,1,4-6.5,85,85,0,0,0,11.51,3.17,61.84,61.84,0,0,0,12.18,1.16q14.36,0,21.19-6.84t6.85-21.52Zm42,16.35h-42V139.36c1.77-.44,4.55-1,8.34-1.66a63.07,63.07,0,0,1,11-1q11.68,0,17.19,4.18t5.5,15.51Z"/><path class="cls-3" d="M1799.31,273.19l-41.38-.34V161.72q0-10.33,6.17-16.35t16.52-6a59.52,59.52,0,0,1,11,1c3.55.66,6.11,1.22,7.67,1.66Zm-41.38-65.41h41.38V339.6q-2.34.66-7.67,1.67a60.39,60.39,0,0,1-11,1q-10.35,0-16.52-6.18t-6.17-16.18Zm22.69-34.38v-34h110.47a23.8,23.8,0,0,1,3,6.68,32,32,0,0,1,1.33,9.34q0,8.69-3.83,13.35t-11.18,4.67Zm0,81.77V221.79h100.45a27,27,0,0,1,3.17,6.68,28.36,28.36,0,0,1,1.51,9.34q0,8.69-4,13t-11,4.34Zm0,87.1V308.56h112.13a41.26,41.26,0,0,1,2.84,6.68,29.46,29.46,0,0,1,1.5,9.67q0,8.68-4,13t-11,4.34Z"/><path class="cls-3" d="M2089.31,165.06a18.58,18.58,0,0,1-3.5,11.18,26.15,26.15,0,0,1-8.18,7.51,112.71,112.71,0,0,0-19.36-10.35q-11-4.67-27-4.67-18.69,0-32.87,8.18t-22,24.36q-7.85,16.18-7.85,39.55,0,35.37,17.69,53.56t47.06,18.19q15.68,0,27-4.34a96,96,0,0,0,19.69-10,23.23,23.23,0,0,1,7.51,7.84,21.64,21.64,0,0,1,3.17,11.51,19.57,19.57,0,0,1-2.84,10.35q-2.83,4.66-9.85,8.34-7,4-19.18,7.34t-30.54,3.34q-28.71,0-52.23-11.52t-37.21-35q-13.68-23.52-13.68-59.56,0-35.06,13.68-58.74t36.71-35.87A106.11,106.11,0,0,1,2025.9,134q19.35,0,33.54,4.34t22,11.35Q2089.3,156.71,2089.31,165.06Z"/><path class="cls-3" d="M2213.11,139.36l.67,34.38H2120a30.2,30.2,0,0,1-3-7,32.84,32.84,0,0,1-1.33-9.68c0-6,1.33-10.45,4-13.35s6.34-4.34,11-4.34Zm-36.37,25.37h42.05V341.27a45,45,0,0,1-8.18,1.83,75.37,75.37,0,0,1-11.18.83q-12.34,0-17.52-4.5t-5.17-15.18Zm6.67,9-1-34.38h93.78a23.58,23.58,0,0,1,3,6.85,33.27,33.27,0,0,1,1.33,9.51q0,8.67-4,13.35t-11,4.67Z"/><path class="cls-3" d="M2356.27,256.83h-42V139.36c1.77-.44,4.55-1,8.34-1.66a64.89,64.89,0,0,1,11.35-1q11.67,0,17,4.18t5.34,15.51Zm-42-48.72h42V341.27a44.54,44.54,0,0,1-8,1.83,74.28,74.28,0,0,1-11.34.83q-12,0-17.36-4.5t-5.33-15.18Z"/><path class="cls-3" d="M2511.45,337.26q-3,2.67-10.18,4.84a54.87,54.87,0,0,1-15.85,2.17,48.08,48.08,0,0,1-17.35-2.84q-7.35-2.83-10-8.51-5-9.68-11.84-26T2431.52,270q-7.84-20.53-15.51-42.22t-14.19-42.55q-6.51-20.85-11.18-37.54a32.58,32.58,0,0,1,9.68-6.84A30.07,30.07,0,0,1,2414,137.7q9.35,0,14.69,4.17t8,13.85q12,38.37,23.69,74.08t24.7,72.75h1.66q8-23,16.52-49.72T2520,197.77q8.17-28.36,14.85-55.4a48.45,48.45,0,0,1,8.84-3.34,39.46,39.46,0,0,1,10.52-1.33q9,0,15.18,4.33t6.17,13.35q0,6-3.5,19.86t-9.51,32.2q-6,18.36-13,38.05t-14.35,38.21q-7.33,18.53-13.51,32.7A195.49,195.49,0,0,1,2511.45,337.26Z"/><path class="cls-3" d="M2652.28,273.19l-41.38-.34V161.72q0-10.33,6.17-16.35t16.52-6a59.41,59.41,0,0,1,11,1c3.56.66,6.12,1.22,7.68,1.66Zm-41.38-65.41h41.38V339.6q-2.34.66-7.68,1.67a60.28,60.28,0,0,1-11,1q-10.35,0-16.52-6.18t-6.17-16.18Zm22.69-34.38v-34h110.46a23.8,23.8,0,0,1,3,6.68,31.61,31.61,0,0,1,1.34,9.34q0,8.69-3.84,13.35t-11.18,4.67Zm0,81.77V221.79H2734a27,27,0,0,1,3.17,6.68,28.36,28.36,0,0,1,1.5,9.34q0,8.69-4,13t-11,4.34Zm0,87.1V308.56h112.13a42.18,42.18,0,0,1,2.84,6.68,29.46,29.46,0,0,1,1.5,9.67q0,8.68-4,13t-11,4.34Z"/></g></g></svg>